<?xml version="1.0" standalone="no"?>
<!-- Generator: Adobe Fireworks 10, Export SVG Extension by Aaron Beall (http://fireworks.abeall.com) . Version: 0.6.1  -->
<!DOCTYPE svg PUBLIC "-//W3C//DTD SVG 1.1//EN" "http://www.w3.org/Graphics/SVG/1.1/DTD/svg11.dtd">
<svg id="Untitled-P%E1gina%201" viewBox="0 0 705 706" style="background-color:#ffffff00" version="1.1"
	xmlns="http://www.w3.org/2000/svg" xmlns:xlink="http://www.w3.org/1999/xlink" xml:space="preserve"
	x="0px" y="0px" width="705px" height="706px"
>
	<g id="Capa%201">
		<g>
			<path d="M 63.8145 0.003 L 0 0.003 L 0 63.8355 L 0 320.6983 L 63.8145 320.6983 L 63.8145 63.8355 L 256.7843 63.8355 L 256.7843 320.6983 L 320.5988 320.6983 L 320.5988 63.8355 L 320.5988 0.003 L 256.7843 0.003 L 63.8145 0.003 Z" fill="#d2d9ce"/>
			<path d="M 192.2052 128.4359 L 128.3906 128.4359 L 128.3906 192.2684 L 192.2052 192.2684 L 192.2052 128.4359 Z" fill="#d2d9ce"/>
			<path d="M 128.3965 320.6983 L 192.2111 320.6983 L 192.2111 256.8629 L 128.3965 256.8629 L 128.3965 320.6983 Z" fill="#d2d9ce"/>
			<path d="M 512.7948 449.1283 L 576.6064 449.1283 L 576.6064 385.2957 L 512.7948 385.2957 L 512.7948 449.1283 Z" fill="#d2d9ce"/>
			<path d="M 448.2157 0.003 L 384.4043 0.003 L 384.4043 256.8688 L 384.4043 320.6983 L 448.2157 320.6983 L 705 320.6983 L 705 256.8688 L 448.2157 256.8688 L 448.2157 0.003 Z" fill="#d2d9ce"/>
			<path d="M 576.6064 0.003 L 512.7948 0.003 L 512.7948 128.4359 L 512.7948 192.2654 L 576.6064 192.2654 L 705 192.2654 L 705 128.4359 L 576.6064 128.4359 L 576.6064 0.003 Z" fill="#d2d9ce"/>
			<path d="M 641.1855 63.8355 L 705 63.8355 L 705 0 L 641.1855 0 L 641.1855 63.8355 Z" fill="#d2d9ce"/>
			<path d="M 512.7948 706 L 576.6064 706 L 576.6064 642.1616 L 512.7948 642.1616 L 512.7948 706 Z" fill="#d2d9ce"/>
			<path d="M 641.1855 513.7316 L 448.2157 513.7316 L 448.2157 385.3017 L 384.4043 385.3017 L 384.4043 513.7316 L 384.4043 577.5701 L 384.4043 705.9941 L 448.2157 705.9941 L 448.2157 577.5701 L 641.1855 577.5701 L 641.1855 705.9941 L 705 705.9941 L 705 577.5701 L 705 513.7316 L 705 385.3017 L 641.1855 385.3017 L 641.1855 513.7316 Z" fill="#d2d9ce"/>
			<path d="M 63.8145 385.3017 L 0 385.3017 L 0 449.1342 L 0 705.9941 L 63.8145 705.9941 L 63.8145 449.1342 L 256.7843 449.1342 L 256.7843 705.9941 L 320.5988 705.9941 L 320.5988 449.1342 L 320.5988 385.3017 L 256.7843 385.3017 L 63.8145 385.3017 Z" fill="#d2d9ce"/>
			<path d="M 128.3965 577.5641 L 192.2111 577.5641 L 192.2111 513.7316 L 128.3965 513.7316 L 128.3965 577.5641 Z" fill="#d2d9ce"/>
			<path d="M 128.3965 706 L 192.2111 706 L 192.2111 642.1616 L 128.3965 642.1616 L 128.3965 706 Z" fill="#d2d9ce"/>
		</g>
	</g>
</svg>