<?xml version="1.0" standalone="no"?>
<!-- Generator: Adobe Fireworks 10, Export SVG Extension by Aaron Beall (http://fireworks.abeall.com) . Version: 0.6.1  -->
<!DOCTYPE svg PUBLIC "-//W3C//DTD SVG 1.1//EN" "http://www.w3.org/Graphics/SVG/1.1/DTD/svg11.dtd">
<svg id="Untitled-P%E1gina%201" viewBox="0 0 188 47" style="background-color:#ffffff00" version="1.1"
	xmlns="http://www.w3.org/2000/svg" xmlns:xlink="http://www.w3.org/1999/xlink" xml:space="preserve"
	x="0px" y="0px" width="188px" height="47px"
>
	<defs>
		<linearGradient id="gradient1" x1="50.0544%" y1="96.931%" x2="50.0544%" y2="-7.7809%">
			<stop stop-color="#006ab3" stop-opacity="1" offset="1%"/>
			<stop stop-color="#12a5dc" stop-opacity="1" offset="99%"/>
		</linearGradient>
	</defs>
	<g>
		<path d="M 12.8497 46.4507 L 7.3131 34.1206 L 4.1121 41.2319 L 8.7682 41.2319 L 9.3752 42.5596 L 3.5212 42.5596 L 1.766 46.4507 L 0.298 46.4507 L 0.73 45.4946 L 6.7898 31.9937 L 7.8293 31.9937 L 14.3323 46.4507 L 12.8497 46.4507 Z" fill="#006ab3"/>
		<path d="M 7.7036 31.5308 L 8.7216 33.7939 L 14.0342 45.6069 L 12.9758 45.6069 L 7.8981 34.2979 L 7.3135 32.9961 L 3.8141 40.7695 L 8.6426 40.7695 L 9.0758 41.7168 L 3.3947 41.7168 L 1.9509 44.9185 L 1.64 45.6069 L 0.5961 45.6069 L 0.9069 44.9185 L 6.9164 31.5308 L 7.7036 31.5308 ZM 7.9563 31.1509 L 7.7036 31.1509 L 6.9164 31.1509 L 6.6631 31.1509 L 6.5613 31.3774 L 0.5516 44.7651 L 0.2416 45.4526 L 0 45.9883 L 0.5961 45.9883 L 1.64 45.9883 L 1.8921 45.9883 L 1.9945 45.7612 L 2.3047 45.0737 L 3.6477 42.0977 L 9.0758 42.0977 L 9.6759 42.0977 L 9.4297 41.5605 L 8.996 40.6143 L 8.8936 40.3892 L 8.6426 40.3892 L 4.4094 40.3892 L 7.3129 33.9385 L 7.5436 34.4507 L 12.6215 45.7607 L 12.7231 45.9883 L 12.9758 45.9883 L 14.0342 45.9883 L 14.6296 45.9883 L 14.3893 45.4526 L 9.0769 33.6401 L 8.058 31.3774 L 7.9563 31.1509 Z" fill="#006ab3"/>
		<path d="M 15.0969 46.4497 L 15.0969 31.9937 L 16.4486 31.9937 L 16.4486 45.1323 L 24.337 45.1323 L 24.337 46.4497 L 15.0969 46.4497 Z" fill="#006ab3"/>
		<path d="M 16.2552 31.5317 L 16.2552 44.6694 L 24.1432 44.6694 L 24.1432 45.606 L 15.2908 45.606 L 15.2908 31.5317 L 16.2552 31.5317 ZM 16.6428 31.1509 L 16.2552 31.1509 L 15.2908 31.1509 L 14.9027 31.1509 L 14.9027 31.5317 L 14.9027 45.606 L 14.9027 45.9868 L 15.2908 45.9868 L 24.1432 45.9868 L 24.5306 45.9868 L 24.5306 45.606 L 24.5306 44.6694 L 24.5306 44.2896 L 24.1432 44.2896 L 16.6428 44.2896 L 16.6428 31.5317 L 16.6428 31.1509 Z" fill="#006ab3"/>
		<path d="M 38.4215 44.7061 C 37.7003 45.4141 36.8643 45.9697 35.9132 46.3726 C 34.9615 46.7773 33.9371 46.9785 32.8425 46.9785 C 31.7607 46.9785 30.7407 46.7773 29.7819 46.3726 C 28.8231 45.9697 27.9871 45.417 27.2728 44.7163 C 26.5596 44.0161 25.9973 43.1948 25.5864 42.2534 C 25.1755 41.312 24.9702 40.3101 24.9702 39.248 C 24.9702 38.1865 25.1755 37.1846 25.5864 36.2437 C 25.9973 35.3013 26.5596 34.4805 27.2728 33.7793 C 27.9871 33.0786 28.8231 32.5269 29.7819 32.123 C 30.7407 31.7192 31.7607 31.5181 32.8425 31.5181 C 33.9371 31.5181 34.9615 31.7192 35.9132 32.123 C 36.8643 32.5269 37.7003 33.0825 38.4215 33.79 L 36.5835 35.5947 C 36.0784 35.1001 35.5094 34.7212 34.8754 34.4595 C 34.2404 34.1978 33.5629 34.0664 32.8425 34.0664 C 32.1351 34.0664 31.4648 34.1978 30.8308 34.4595 C 30.1965 34.7212 29.6268 35.1001 29.1227 35.5947 C 28.6176 36.0918 28.2318 36.6499 27.9655 37.2729 C 27.6981 37.896 27.5653 38.5547 27.5653 39.248 C 27.5653 39.9424 27.6981 40.604 27.9655 41.2334 C 28.2318 41.8633 28.6176 42.4272 29.1227 42.9219 C 29.6268 43.4185 30.1965 43.793 30.8308 44.0479 C 31.4648 44.3027 32.1351 44.4297 32.8425 44.4297 C 33.5629 44.4297 34.2404 44.3027 34.8754 44.0479 C 35.5094 43.793 36.0784 43.4185 36.5835 42.9219 L 38.4215 44.7061 Z" fill="#ff5100"/>
		<path d="M 46.0558 31.5181 C 47.137 31.5181 48.1567 31.7197 49.1157 32.123 C 50.0746 32.5269 50.9108 33.0786 51.6245 33.7798 C 52.3378 34.48 52.9001 35.3018 53.3112 36.2427 C 53.7219 37.1846 53.9276 38.1865 53.9276 39.248 C 53.9276 40.3101 53.7219 41.3115 53.3112 42.2534 C 52.9001 43.1948 52.3378 44.0161 51.6245 44.7163 C 50.9108 45.418 50.0746 45.9697 49.1157 46.3735 C 48.1567 46.7764 47.137 46.9785 46.0558 46.9785 C 44.974 46.9785 43.954 46.7764 42.996 46.3735 C 42.037 45.9697 41.2009 45.418 40.4871 44.7163 C 39.7729 44.0161 39.2106 43.1948 38.7997 42.2534 C 38.3894 41.3115 38.1835 40.3101 38.1835 39.248 C 38.1835 38.1865 38.3894 37.1846 38.7997 36.2427 C 39.2106 35.3018 39.7729 34.48 40.4871 33.7798 C 41.2009 33.0786 42.037 32.5269 42.996 32.123 C 43.954 31.7197 44.974 31.5181 46.0558 31.5181 L 46.0558 31.5181 ZM 46.0558 34.0664 C 45.349 34.0664 44.6787 34.1978 44.0447 34.4595 C 43.4104 34.7212 42.8406 35.1001 42.3359 35.5957 C 41.8308 36.0913 41.4457 36.6504 41.1787 37.2729 C 40.9122 37.8965 40.7786 38.5547 40.7786 39.248 C 40.7786 39.9414 40.9122 40.604 41.1787 41.2339 C 41.4457 41.8643 41.8308 42.4272 42.3359 42.9219 C 42.8406 43.4175 43.4104 43.793 44.0447 44.0479 C 44.6787 44.3022 45.349 44.4297 46.0558 44.4297 C 46.7618 44.4297 47.4364 44.3022 48.0778 44.0479 C 48.7191 43.793 49.2924 43.4175 49.7974 42.9219 C 50.3015 42.4272 50.6838 41.8643 50.9437 41.2339 C 51.2029 40.604 51.3324 39.9414 51.3324 39.248 C 51.3324 38.5547 51.2029 37.8965 50.9437 37.2729 C 50.6838 36.6504 50.3015 36.0913 49.7974 35.5957 C 49.2924 35.1001 48.7191 34.7212 48.0778 34.4595 C 47.4364 34.1978 46.7618 34.0664 46.0558 34.0664 L 46.0558 34.0664 Z" fill="#ff5100"/>
		<path d="M 66.7092 31.1621 L 66.7092 46.0283 L 63.8979 46.0283 L 57.8206 35.856 L 57.8206 46.0283 L 55.2255 46.0283 L 55.2255 31.1621 L 58.0372 31.1621 L 64.114 41.335 L 64.114 31.1621 L 66.7092 31.1621 Z" fill="#ff5100"/>
		<path d="M 78.8846 42.4551 C 78.8846 43.1489 78.7692 43.7749 78.5383 44.3345 C 78.3085 44.8936 77.9795 45.3677 77.5548 45.7573 C 77.129 46.1465 76.614 46.4478 76.0084 46.6597 C 75.4031 46.8726 74.7251 46.9785 73.9756 46.9785 C 72.7787 46.9785 71.7118 46.791 70.7745 46.4155 C 69.8378 46.041 69.0664 45.6118 68.4607 45.1309 L 70.2557 43.3682 C 70.7312 43.793 71.265 44.1182 71.8562 44.3452 C 72.2166 44.4868 72.5552 44.5786 72.8726 44.6211 C 73.1892 44.6636 73.4486 44.6855 73.651 44.6855 C 74.0259 44.6855 74.368 44.6396 74.6783 44.5469 C 74.9886 44.4546 75.2585 44.3311 75.4894 44.1753 C 75.9791 43.8208 76.2249 43.354 76.2249 42.7739 C 76.2249 42.4194 76.0946 42.1006 75.8352 41.8184 C 75.6334 41.5913 75.3734 41.4072 75.0568 41.2656 C 74.7974 41.1245 74.5231 41.0107 74.235 40.9253 C 73.9464 40.8408 73.687 40.7637 73.4565 40.6924 C 73.384 40.6636 73.3193 40.6465 73.2617 40.6396 C 73.2045 40.6318 73.1536 40.6143 73.1102 40.5859 C 73.0815 40.5859 73.0377 40.5723 72.981 40.5435 C 72.6777 40.4585 72.2417 40.3101 71.6722 40.0972 C 71.1027 39.8853 70.5367 39.5952 69.975 39.2271 C 68.6627 38.3633 68.0068 37.3013 68.0068 36.041 C 68.0068 35.2061 68.1542 34.502 68.4501 33.9287 C 68.7452 33.3545 69.131 32.8877 69.6071 32.5259 C 70.0825 32.166 70.6122 31.9072 71.1968 31.751 C 71.7808 31.5957 72.3536 31.5176 72.9154 31.5176 C 73.9543 31.5176 74.8264 31.6382 75.5323 31.8789 C 76.2391 32.1201 76.801 32.3599 77.2194 32.6006 C 77.4358 32.728 77.6195 32.8525 77.7712 32.9731 C 77.9221 33.0933 78.0555 33.2036 78.1713 33.3018 L 76.333 35.1284 C 75.9431 34.7461 75.5466 34.4561 75.1431 34.2573 C 74.5374 33.9746 73.9034 33.833 73.2401 33.833 C 72.9514 33.833 72.6635 33.8682 72.3748 33.939 C 72.0867 34.0103 71.8346 34.1021 71.6182 34.2148 C 70.9836 34.5972 70.6666 35.1001 70.6666 35.7231 C 70.6666 36.105 70.7968 36.4312 71.0559 36.6997 C 71.2433 36.9121 71.5027 37.103 71.8346 37.2729 C 72.1084 37.415 72.3964 37.5283 72.6993 37.6133 C 73.0023 37.6978 73.2833 37.7759 73.5433 37.8472 L 73.8027 37.9102 C 73.8744 37.939 74.011 37.9814 74.2134 38.0376 C 74.4154 38.0942 74.6532 38.1787 74.9275 38.2925 C 75.2007 38.4058 75.5001 38.5405 75.8247 38.6958 C 76.1494 38.8521 76.4695 39.0361 76.7872 39.248 C 78.1857 40.1543 78.8846 41.2231 78.8846 42.4551 L 78.8846 42.4551 Z" fill="#ff5100"/>
		<path d="M 90.3247 34.3848 L 85.8916 34.3848 L 85.8916 46.7026 L 83.2964 46.7026 L 83.2964 34.3848 L 78.8416 34.3848 L 78.8416 31.8364 L 83.2964 31.8364 L 85.8916 31.8364 L 90.3247 31.8364 L 90.3247 34.3848 Z" fill="#ff5100"/>
		<path d="M 102.6086 37.167 C 102.6086 37.7056 102.5326 38.2188 102.3817 38.7061 C 102.2296 39.1948 102.0209 39.6445 101.7542 40.0547 C 101.4874 40.4653 101.1628 40.8374 100.7809 41.1704 C 100.3989 41.5034 99.9773 41.7754 99.5157 41.9873 L 102.6086 46.7026 L 99.5157 46.7026 L 96.7692 42.519 L 94.9963 42.519 L 96.0555 39.9707 L 97.1803 39.9707 C 97.9587 39.9707 98.6296 39.6943 99.1918 39.1416 C 99.4514 38.8726 99.6526 38.5688 99.797 38.229 C 99.941 37.8887 100.0135 37.5352 100.0135 37.167 C 100.0135 36.7993 99.941 36.4448 99.797 36.105 C 99.6526 35.7646 99.4514 35.4678 99.1918 35.2129 C 98.6296 34.6611 97.9587 34.3848 97.1803 34.3848 L 94.1096 34.3848 L 94.1096 35.7861 L 94.1096 39.9707 L 94.1096 42.519 L 94.1096 46.7026 L 91.5142 46.7026 L 91.5142 42.519 L 91.5142 35.7861 L 91.5142 31.8364 L 97.1803 31.8364 C 97.9301 31.8364 98.6326 31.978 99.2888 32.2607 C 99.9451 32.5444 100.5182 32.9272 101.0084 33.4077 C 101.4979 33.8896 101.8876 34.4526 102.1759 35.0962 C 102.4641 35.7402 102.6086 36.4312 102.6086 37.167 L 102.6086 37.167 Z" fill="#ff5100"/>
		<path d="M 115.963 31.8364 L 115.963 40.7563 C 115.963 41.6191 115.7969 42.4302 115.4652 43.187 C 115.1337 43.9448 114.6792 44.6074 114.1024 45.1729 C 113.5264 45.7393 112.8521 46.1855 112.0806 46.5112 C 111.3091 46.8359 110.4838 47 109.6046 47 C 108.725 47 107.8997 46.8359 107.1283 46.5112 C 106.3567 46.1855 105.683 45.7393 105.1063 45.1729 C 104.5295 44.6074 104.0751 43.9448 103.744 43.187 C 103.4119 42.4302 103.2463 41.6191 103.2463 40.7563 L 103.2463 31.8364 L 105.8414 31.8364 L 105.8414 40.7563 C 105.8414 41.252 105.9351 41.7227 106.1228 42.1685 C 106.3099 42.6143 106.5837 43.0146 106.9446 43.3682 C 107.3049 43.7222 107.7119 43.9912 108.1664 44.1753 C 108.6208 44.3589 109.0992 44.4517 109.6046 44.4517 C 110.6428 44.4517 111.5289 44.0894 112.2648 43.3682 C 112.625 43.0146 112.8988 42.6143 113.0865 42.1685 C 113.2737 41.7227 113.3673 41.252 113.3673 40.7563 L 113.3673 31.8364 L 115.963 31.8364 Z" fill="#ff5100"/>
		<path d="M 131.1555 44.7061 C 130.4337 45.4141 129.5973 45.9697 128.6462 46.3726 C 127.6947 46.7773 126.6711 46.9785 125.5757 46.9785 C 124.4941 46.9785 123.474 46.7773 122.5155 46.3726 C 121.5563 45.9697 120.7205 45.417 120.0068 44.7163 C 119.2927 44.0161 118.7306 43.1948 118.3201 42.2534 C 117.9088 41.312 117.7036 40.3101 117.7036 39.248 C 117.7036 38.1865 117.9088 37.1846 118.3201 36.2437 C 118.7306 35.3013 119.2927 34.4805 120.0068 33.7793 C 120.7205 33.0786 121.5563 32.5269 122.5155 32.123 C 123.474 31.7192 124.4941 31.5181 125.5757 31.5181 C 126.6711 31.5181 127.6947 31.7192 128.6462 32.123 C 129.5973 32.5269 130.4337 33.0825 131.1555 33.79 L 129.3167 35.5947 C 128.8118 35.1001 128.2427 34.7212 127.6082 34.4595 C 126.9741 34.1978 126.2963 34.0664 125.5757 34.0664 C 124.869 34.0664 124.1987 34.1978 123.5642 34.4595 C 122.9296 34.7212 122.3593 35.1001 121.8557 35.5947 C 121.351 36.0918 120.9655 36.6499 120.6989 37.2729 C 120.4315 37.896 120.2987 38.5547 120.2987 39.248 C 120.2987 39.9424 120.4315 40.604 120.6989 41.2334 C 120.9655 41.8633 121.351 42.4272 121.8557 42.9219 C 122.3593 43.4185 122.9296 43.793 123.5642 44.0479 C 124.1987 44.3027 124.869 44.4297 125.5757 44.4297 C 126.2963 44.4297 126.9741 44.3027 127.6082 44.0479 C 128.2427 43.793 128.8118 43.4185 129.3167 42.9219 L 131.1555 44.7061 Z" fill="#ff5100"/>
		<path d="M 143.2872 34.3848 L 138.8538 34.3848 L 138.8538 46.7026 L 136.2587 46.7026 L 136.2587 34.3848 L 131.8036 34.3848 L 131.8036 31.8364 L 136.2587 31.8364 L 138.8538 31.8364 L 143.2872 31.8364 L 143.2872 34.3848 Z" fill="#ff5100"/>
		<path d="M 150.3488 31.5181 C 151.4297 31.5181 152.4497 31.7197 153.4083 32.123 C 154.3676 32.5269 155.2029 33.0786 155.9176 33.7798 C 156.6311 34.48 157.1932 35.3018 157.6044 36.2427 C 158.0149 37.1846 158.2203 38.1865 158.2203 39.248 C 158.2203 40.3101 158.0149 41.3115 157.6044 42.2534 C 157.1932 43.1948 156.6311 44.0161 155.9176 44.7163 C 155.2029 45.418 154.3676 45.9697 153.4083 46.3735 C 152.4497 46.7764 151.4297 46.9785 150.3488 46.9785 C 149.2673 46.9785 148.2466 46.7764 147.2887 46.3735 C 146.3293 45.9697 145.493 45.418 144.78 44.7163 C 144.0658 44.0161 143.5038 43.1948 143.0927 42.2534 C 142.682 41.3115 142.4755 40.3101 142.4755 39.248 C 142.4755 38.1865 142.682 37.1846 143.0927 36.2427 C 143.5038 35.3018 144.0658 34.48 144.78 33.7798 C 145.493 33.0786 146.3293 32.5269 147.2887 32.123 C 148.2466 31.7197 149.2673 31.5181 150.3488 31.5181 L 150.3488 31.5181 ZM 150.3488 34.0664 C 149.6416 34.0664 148.9713 34.1978 148.3373 34.4595 C 147.7021 34.7212 147.1331 35.1001 146.6283 35.5957 C 146.1241 36.0913 145.738 36.6504 145.4714 37.2729 C 145.2046 37.8965 145.0707 38.5547 145.0707 39.248 C 145.0707 39.9414 145.2046 40.604 145.4714 41.2339 C 145.738 41.8643 146.1241 42.4272 146.6283 42.9219 C 147.1331 43.4175 147.7021 43.793 148.3373 44.0479 C 148.9713 44.3022 149.6416 44.4297 150.3488 44.4297 C 151.0547 44.4297 151.7291 44.3022 152.3707 44.0479 C 153.0118 43.793 153.5851 43.4175 154.0897 42.9219 C 154.5939 42.4272 154.9764 41.8643 155.2362 41.2339 C 155.4958 40.604 155.6251 39.9414 155.6251 39.248 C 155.6251 38.5547 155.4958 37.8965 155.2362 37.2729 C 154.9764 36.6504 154.5939 36.0913 154.0897 35.5957 C 153.5851 35.1001 153.0118 34.7212 152.3707 34.4595 C 151.7291 34.1978 151.0547 34.0664 150.3488 34.0664 L 150.3488 34.0664 Z" fill="#ff5100"/>
		<path d="M 171.2726 37.167 C 171.2726 37.7056 171.1965 38.2188 171.045 38.7061 C 170.8936 39.1948 170.6848 39.6445 170.4181 40.0547 C 170.1508 40.4653 169.8267 40.8374 169.4448 41.1704 C 169.0623 41.5034 168.6411 41.7754 168.1797 41.9873 L 171.2726 46.7026 L 168.1797 46.7026 L 165.433 42.519 L 163.6597 42.519 L 164.7195 39.9707 L 165.8442 39.9707 C 166.6227 39.9707 167.2924 39.6943 167.8551 39.1416 C 168.1147 38.8726 168.3159 38.5688 168.4611 38.229 C 168.605 37.8887 168.6769 37.5352 168.6769 37.167 C 168.6769 36.7993 168.605 36.4448 168.4611 36.105 C 168.3159 35.7646 168.1147 35.4678 167.8551 35.2129 C 167.2924 34.6611 166.6227 34.3848 165.8442 34.3848 L 162.7736 34.3848 L 162.7736 35.7861 L 162.7736 39.9707 L 162.7736 42.519 L 162.7736 46.7026 L 160.1779 46.7026 L 160.1779 42.519 L 160.1779 35.7861 L 160.1779 31.8364 L 165.8442 31.8364 C 166.594 31.8364 167.2965 31.978 167.9526 32.2607 C 168.6084 32.5444 169.1816 32.9272 169.6718 33.4077 C 170.1619 33.8896 170.5514 34.4526 170.8397 35.0962 C 171.1282 35.7402 171.2726 36.4312 171.2726 37.167 L 171.2726 37.167 Z" fill="#ff5100"/>
		<path d="M 188 46.7026 L 185.1445 46.7026 L 183.9772 44.1538 L 182.8097 41.6055 L 179.739 34.9365 L 176.6677 41.6055 L 180.6034 41.6055 L 181.7715 44.1538 L 175.4996 44.1538 L 174.3317 46.7026 L 171.4774 46.7026 L 178.3113 31.8364 L 181.1661 31.8364 L 188 46.7026 Z" fill="#ff5100"/>
		<path d="M 48.0536 4.1538 L 48.0536 28.415 L 39.3738 28.415 L 39.3738 8.6304 L 48.0536 4.1538 Z" fill="#ff5100"/>
		<path d="M 56.7334 8.3105 L 56.7334 13.7451 L 51.3103 16.0889 L 51.3103 28.415 L 58.9058 28.415 L 58.9058 12.3604 L 63.2444 12.3604 L 63.2444 28.415 L 78.4343 28.415 L 83.9642 28.415 L 90.9639 28.415 L 78.4343 24.5063 L 78.4343 18.4331 L 96.8821 27.7036 L 96.8821 25.7842 L 78.4343 15.3447 L 78.4343 8.7373 L 96.8821 24.1851 L 96.8821 22.5889 L 74.7463 0 L 56.7334 8.3105 Z" fill="url(#gradient1)"/>
	</g>
</svg>