<?xml version="1.0" standalone="no"?>
<!-- Generator: Adobe Fireworks 10, Export SVG Extension by Aaron Beall (http://fireworks.abeall.com) . Version: 0.6.1  -->
<!DOCTYPE svg PUBLIC "-//W3C//DTD SVG 1.1//EN" "http://www.w3.org/Graphics/SVG/1.1/DTD/svg11.dtd">
<svg id="Untitled-P%E1gina%201" viewBox="0 0 318 118" style="background-color:#ffffff00" version="1.1"
	xmlns="http://www.w3.org/2000/svg" xmlns:xlink="http://www.w3.org/1999/xlink" xml:space="preserve"
	x="0px" y="0px" width="318px" height="118px"
>
	<g>
		<path d="M 11.4653 0.8032 L 0.9521 0.8032 L 0.9521 11.3159 L 0.9521 53.6191 L 11.4653 53.6191 L 11.4653 11.3159 L 43.2563 11.3159 L 43.2563 53.6191 L 53.7695 53.6191 L 53.7695 11.3159 L 53.7695 0.8032 L 43.2563 0.8032 L 11.4653 0.8032 Z" fill="#597449"/>
		<path d="M 32.6172 21.9551 L 22.104 21.9551 L 22.104 32.4678 L 32.6172 32.4678 L 32.6172 21.9551 Z" fill="#597449"/>
		<path d="M 22.105 53.6191 L 32.6182 53.6191 L 32.6182 43.106 L 22.105 43.106 L 22.105 53.6191 Z" fill="#597449"/>
		<path d="M 85.4331 74.7705 L 95.9458 74.7705 L 95.9458 64.2578 L 85.4331 64.2578 L 85.4331 74.7705 Z" fill="#597449"/>
		<path d="M 74.7939 0.8032 L 64.2813 0.8032 L 64.2813 43.1069 L 64.2813 53.6191 L 74.7939 53.6191 L 117.0981 53.6191 L 117.0981 43.1069 L 74.7939 43.1069 L 74.7939 0.8032 Z" fill="#597449"/>
		<path d="M 95.9458 0.8032 L 85.4331 0.8032 L 85.4331 21.9551 L 85.4331 32.4673 L 95.9458 32.4673 L 117.0981 32.4673 L 117.0981 21.9551 L 95.9458 21.9551 L 95.9458 0.8032 Z" fill="#597449"/>
		<path d="M 106.585 11.3159 L 117.0981 11.3159 L 117.0981 0.8027 L 106.585 0.8027 L 106.585 11.3159 Z" fill="#597449"/>
		<path d="M 85.4331 117.0752 L 95.9458 117.0752 L 95.9458 106.5615 L 85.4331 106.5615 L 85.4331 117.0752 Z" fill="#597449"/>
		<path d="M 106.585 85.4102 L 74.7939 85.4102 L 74.7939 64.2588 L 64.2813 64.2588 L 64.2813 85.4102 L 64.2813 95.9238 L 64.2813 117.0742 L 74.7939 117.0742 L 74.7939 95.9238 L 106.585 95.9238 L 106.585 117.0742 L 117.0981 117.0742 L 117.0981 95.9238 L 117.0981 85.4102 L 117.0981 64.2588 L 106.585 64.2588 L 106.585 85.4102 Z" fill="#597449"/>
		<path d="M 11.4653 64.2588 L 0.9521 64.2588 L 0.9521 74.7715 L 0.9521 117.0742 L 11.4653 117.0742 L 11.4653 74.7715 L 43.2563 74.7715 L 43.2563 117.0742 L 53.7695 117.0742 L 53.7695 74.7715 L 53.7695 64.2588 L 43.2563 64.2588 L 11.4653 64.2588 Z" fill="#597449"/>
		<path d="M 22.105 95.9229 L 32.6182 95.9229 L 32.6182 85.4102 L 22.105 85.4102 L 22.105 95.9229 Z" fill="#597449"/>
		<path d="M 22.105 117.0752 L 32.6182 117.0752 L 32.6182 106.5615 L 22.105 106.5615 L 22.105 117.0752 Z" fill="#597449"/>
		<path d="M 148.7568 53.6191 L 164.8516 11.3159 L 175.1973 11.3159 L 191.5225 53.6191 L 181.2354 53.6191 L 177.7969 44.6318 L 161.4131 44.6318 L 158.4658 53.6191 L 148.7568 53.6191 ZM 175.6875 37.5239 L 170.9492 23.856 C 170.8135 23.4521 170.6406 22.7578 170.4287 21.7759 C 170.2168 20.793 169.9961 19.5898 169.7637 18.1641 C 169.5137 19.5322 169.2725 20.7603 169.042 21.8481 C 168.8105 22.937 168.6367 23.6641 168.5215 24.0303 L 163.9561 37.5239 L 175.6875 37.5239 Z" fill="#5e5452"/>
		<path d="M 204.5889 53.6196 L 204.5889 11.3154 L 213.6338 11.3154 L 213.6338 45.9326 L 228.0811 45.9326 L 228.0811 53.6196 L 204.5889 53.6196 Z" fill="#5e5452"/>
		<path d="M 155.8218 64.6738 L 158.8008 64.6738 L 165.9131 81.0215 L 161.8486 81.0215 L 160.4404 77.5586 L 154.0908 77.5586 L 152.7275 81.0215 L 148.7568 81.0215 L 155.8218 64.6738 ZM 157.208 69.4307 L 155.2217 74.5107 L 159.2168 74.5107 L 157.208 69.4307 Z" fill="#5e5452"/>
		<path d="M 181.4063 64.6748 L 187.7334 64.6748 C 188.5654 64.6748 189.3525 64.7549 190.0996 64.917 C 190.8467 65.0781 191.501 65.3477 192.0625 65.7246 C 192.625 66.1025 193.0713 66.6104 193.4023 67.248 C 193.7334 67.8877 193.8994 68.6846 193.8994 69.6387 C 193.8994 70.7939 193.5977 71.7744 192.998 72.583 C 192.3984 73.3906 191.5215 73.9023 190.3662 74.1182 L 194.5225 81.0225 L 190.2041 81.0225 L 186.7871 74.4873 L 185.0088 74.4873 L 185.0088 81.0225 L 181.4063 81.0225 L 181.4063 64.6748 ZM 185.0088 71.4395 L 187.1328 71.4395 C 187.4561 71.4395 187.7988 71.4287 188.1611 71.4043 C 188.5225 71.3828 188.8486 71.3125 189.1416 71.1973 C 189.4336 71.0811 189.6768 70.9004 189.8691 70.6543 C 190.0605 70.4082 190.1582 70.0625 190.1582 69.6152 C 190.1582 69.1992 190.0732 68.8691 189.9043 68.6221 C 189.7344 68.377 189.5186 68.1875 189.2578 68.0576 C 188.9961 67.9268 188.6953 67.8379 188.3574 67.792 C 188.0176 67.7451 187.6865 67.7227 187.3643 67.7227 L 185.0088 67.7227 L 185.0088 71.4395 Z" fill="#5e5452"/>
		<path d="M 210.2236 64.6748 L 216.5508 64.6748 C 217.3828 64.6748 218.1699 64.7549 218.917 64.917 C 219.6641 65.0781 220.3184 65.3477 220.8809 65.7246 C 221.4424 66.1025 221.8887 66.6104 222.2197 67.248 C 222.5508 67.8877 222.7168 68.6846 222.7168 69.6387 C 222.7168 70.7939 222.415 71.7744 221.8154 72.583 C 221.2158 73.3906 220.3389 73.9023 219.1836 74.1182 L 223.3398 81.0225 L 219.0215 81.0225 L 215.6045 74.4873 L 213.8262 74.4873 L 213.8262 81.0225 L 210.2236 81.0225 L 210.2236 64.6748 ZM 213.8262 71.4395 L 215.9502 71.4395 C 216.2734 71.4395 216.6162 71.4287 216.9785 71.4043 C 217.3398 71.3828 217.666 71.3125 217.959 71.1973 C 218.251 71.0811 218.4941 70.9004 218.6865 70.6543 C 218.8779 70.4082 218.9756 70.0625 218.9756 69.6152 C 218.9756 69.1992 218.8906 68.8691 218.7217 68.6221 C 218.5518 68.377 218.3359 68.1875 218.0752 68.0576 C 217.8135 67.9268 217.5127 67.8379 217.1748 67.792 C 216.835 67.7451 216.5039 67.7227 216.1816 67.7227 L 213.8262 67.7227 L 213.8262 71.4395 Z" fill="#5e5452"/>
		<path d="M 238.1631 72.8486 C 238.1631 71.541 238.3828 70.3545 238.8213 69.293 C 239.2598 68.2305 239.8721 67.3262 240.6572 66.5791 C 241.4424 65.833 242.373 65.2598 243.4512 64.8584 C 244.5283 64.459 245.7061 64.2588 246.9844 64.2588 C 248.2617 64.2588 249.4395 64.459 250.5176 64.8584 C 251.5938 65.2598 252.5264 65.833 253.3115 66.5791 C 254.0957 67.3262 254.708 68.2305 255.1465 69.293 C 255.585 70.3545 255.8047 71.541 255.8047 72.8486 C 255.8047 74.1563 255.585 75.3418 255.1465 76.4043 C 254.708 77.4668 254.0957 78.3701 253.3115 79.1172 C 252.5264 79.8643 251.5938 80.4375 250.5176 80.8379 C 249.4395 81.2373 248.2617 81.4375 246.9844 81.4375 C 245.7061 81.4375 244.5283 81.2373 243.4512 80.8379 C 242.373 80.4375 241.4424 79.8643 240.6572 79.1172 C 239.8721 78.3701 239.2598 77.4668 238.8213 76.4043 C 238.3828 75.3418 238.1631 74.1563 238.1631 72.8486 L 238.1631 72.8486 ZM 241.9043 72.8486 C 241.9043 73.6182 242.0234 74.3223 242.2617 74.9609 C 242.5 75.5996 242.8428 76.1543 243.2891 76.623 C 243.7363 77.0938 244.2715 77.46 244.8945 77.7207 C 245.5176 77.9824 246.2139 78.1123 246.9844 78.1123 C 247.7529 78.1123 248.4502 77.9824 249.0742 77.7207 C 249.6973 77.46 250.2324 77.0938 250.6777 76.623 C 251.125 76.1543 251.4668 75.5996 251.7061 74.9609 C 251.9443 74.3223 252.0645 73.6182 252.0645 72.8486 C 252.0645 72.0947 251.9443 71.3936 251.7061 70.7461 C 251.4668 70.1006 251.125 69.543 250.6777 69.0723 C 250.2324 68.6035 249.6973 68.2373 249.0742 67.9756 C 248.4502 67.7148 247.7529 67.584 246.9844 67.584 C 246.2139 67.584 245.5176 67.7148 244.8945 67.9756 C 244.2715 68.2373 243.7363 68.6035 243.2891 69.0723 C 242.8428 69.543 242.5 70.1006 242.2617 70.7461 C 242.0234 71.3936 241.9043 72.0947 241.9043 72.8486 L 241.9043 72.8486 Z" fill="#5e5452"/>
		<path d="M 276.124 74.0488 L 269.9824 64.6738 L 274.4609 64.6738 L 277.9258 70.793 L 281.5967 64.6738 L 285.8682 64.6738 L 279.7266 74.0488 L 279.7266 81.0225 L 276.124 81.0225 L 276.124 74.0488 Z" fill="#5e5452"/>
		<path d="M 300.0449 72.8486 C 300.0449 71.541 300.2656 70.3545 300.7031 69.293 C 301.1426 68.2305 301.7539 67.3262 302.5391 66.5791 C 303.3242 65.833 304.2559 65.2598 305.333 64.8584 C 306.4102 64.459 307.5879 64.2588 308.8662 64.2588 C 310.1445 64.2588 311.3213 64.459 312.3994 64.8584 C 313.4766 65.2598 314.4082 65.833 315.1934 66.5791 C 315.9785 67.3262 316.5908 68.2305 317.0283 69.293 C 317.4678 70.3545 317.6875 71.541 317.6875 72.8486 C 317.6875 74.1563 317.4678 75.3418 317.0283 76.4043 C 316.5908 77.4668 315.9785 78.3701 315.1934 79.1172 C 314.4082 79.8643 313.4766 80.4375 312.3994 80.8379 C 311.3213 81.2373 310.1445 81.4375 308.8662 81.4375 C 307.5879 81.4375 306.4102 81.2373 305.333 80.8379 C 304.2559 80.4375 303.3242 79.8643 302.5391 79.1172 C 301.7539 78.3701 301.1426 77.4668 300.7031 76.4043 C 300.2656 75.3418 300.0449 74.1563 300.0449 72.8486 L 300.0449 72.8486 ZM 303.7861 72.8486 C 303.7861 73.6182 303.9053 74.3223 304.1445 74.9609 C 304.3828 75.5996 304.7256 76.1543 305.1719 76.623 C 305.6182 77.0938 306.1533 77.46 306.7764 77.7207 C 307.3994 77.9824 308.0967 78.1123 308.8662 78.1123 C 309.6357 78.1123 310.332 77.9824 310.9561 77.7207 C 311.5791 77.46 312.1143 77.0938 312.5605 76.623 C 313.0078 76.1543 313.3496 75.5996 313.5879 74.9609 C 313.8262 74.3223 313.9463 73.6182 313.9463 72.8486 C 313.9463 72.0947 313.8262 71.3936 313.5879 70.7461 C 313.3496 70.1006 313.0078 69.543 312.5605 69.0723 C 312.1143 68.6035 311.5791 68.2373 310.9561 67.9756 C 310.332 67.7148 309.6357 67.584 308.8662 67.584 C 308.0967 67.584 307.3994 67.7148 306.7764 67.9756 C 306.1533 68.2373 305.6182 68.6035 305.1719 69.0723 C 304.7256 69.543 304.3828 70.1006 304.1445 70.7461 C 303.9053 71.3936 303.7861 72.0947 303.7861 72.8486 L 303.7861 72.8486 Z" fill="#5e5452"/>
		<path d="M 150.0728 89.6465 L 153.6758 89.6465 L 153.6758 95.7422 L 160.6719 95.7422 L 160.6719 89.6465 L 164.2734 89.6465 L 164.2734 105.9941 L 160.6719 105.9941 L 160.6719 98.9297 L 153.6758 98.9297 L 153.6758 105.9941 L 150.0728 105.9941 L 150.0728 89.6465 Z" fill="#5e5452"/>
		<path d="M 180.5752 97.8213 C 180.5752 96.5127 180.7949 95.3271 181.2334 94.2646 C 181.6729 93.2031 182.2842 92.2988 183.0693 91.5518 C 183.8545 90.8047 184.7852 90.2314 185.8633 89.8311 C 186.9404 89.4307 188.1182 89.2305 189.3965 89.2305 C 190.6748 89.2305 191.8516 89.4307 192.9297 89.8311 C 194.0068 90.2314 194.9385 90.8047 195.7236 91.5518 C 196.5088 92.2988 197.1201 93.2031 197.5586 94.2646 C 197.9971 95.3271 198.2178 96.5127 198.2178 97.8213 C 198.2178 99.1289 197.9971 100.3135 197.5586 101.377 C 197.1201 102.4385 196.5088 103.3428 195.7236 104.0898 C 194.9385 104.8369 194.0068 105.4102 192.9297 105.8096 C 191.8516 106.21 190.6748 106.4102 189.3965 106.4102 C 188.1182 106.4102 186.9404 106.21 185.8633 105.8096 C 184.7852 105.4102 183.8545 104.8369 183.0693 104.0898 C 182.2842 103.3428 181.6729 102.4385 181.2334 101.377 C 180.7949 100.3135 180.5752 99.1289 180.5752 97.8213 L 180.5752 97.8213 ZM 184.3164 97.8213 C 184.3164 98.5908 184.4355 99.2949 184.6748 99.9326 C 184.9121 100.5723 185.2559 101.127 185.7012 101.5957 C 186.1484 102.0654 186.6836 102.4316 187.3066 102.6924 C 187.9297 102.9551 188.626 103.085 189.3965 103.085 C 190.165 103.085 190.8623 102.9551 191.4863 102.6924 C 192.1094 102.4316 192.6445 102.0654 193.0908 101.5957 C 193.5371 101.127 193.8789 100.5723 194.1182 99.9326 C 194.3564 99.2949 194.4766 98.5908 194.4766 97.8213 C 194.4766 97.0664 194.3564 96.3662 194.1182 95.7188 C 193.8789 95.0732 193.5371 94.5146 193.0908 94.0449 C 192.6445 93.5762 192.1094 93.21 191.4863 92.9482 C 190.8623 92.6865 190.165 92.5557 189.3965 92.5557 C 188.626 92.5557 187.9297 92.6865 187.3066 92.9482 C 186.6836 93.21 186.1484 93.5762 185.7012 94.0449 C 185.2559 94.5146 184.9121 95.0732 184.6748 95.7188 C 184.4355 96.3662 184.3164 97.0664 184.3164 97.8213 L 184.3164 97.8213 Z" fill="#5e5452"/>
		<path d="M 214.5186 89.6465 L 219.4131 89.6465 L 226.3643 101.0078 L 226.4102 101.0078 L 226.4102 89.6465 L 230.0127 89.6465 L 230.0127 105.9941 L 225.3027 105.9941 L 218.168 94.3574 L 218.1211 94.3574 L 218.1211 105.9941 L 214.5186 105.9941 L 214.5186 89.6465 Z" fill="#5e5452"/>
		<path d="M 247.1904 89.6465 L 252.5947 89.6465 C 253.9023 89.6465 255.1465 89.7939 256.3242 90.0859 C 257.501 90.3779 258.5283 90.8516 259.4072 91.5049 C 260.2842 92.1592 260.9805 93.0107 261.4961 94.0566 C 262.0117 95.1035 262.2695 96.374 262.2695 97.8662 C 262.2695 99.1904 262.0195 100.3564 261.5186 101.3643 C 261.0186 102.374 260.3447 103.2197 259.499 103.9043 C 258.6514 104.5908 257.6748 105.1094 256.5654 105.4639 C 255.458 105.8174 254.2959 105.9951 253.0801 105.9951 L 247.1904 105.9951 L 247.1904 89.6465 ZM 250.7939 102.6699 L 252.6641 102.6699 C 253.4951 102.6699 254.2686 102.5859 254.9844 102.416 C 255.7012 102.2471 256.3193 101.9658 256.8438 101.5723 C 257.3672 101.1807 257.7783 100.665 258.0791 100.0254 C 258.3789 99.3867 258.5283 98.6055 258.5283 97.6826 C 258.5283 96.8818 258.3789 96.1846 258.0791 95.5928 C 257.7783 95 257.375 94.5117 256.8672 94.127 C 256.3584 93.7412 255.7617 93.4521 255.0771 93.2607 C 254.3916 93.0674 253.6719 92.9717 252.918 92.9717 L 250.7939 92.9717 L 250.7939 102.6699 Z" fill="#5e5452"/>
		<path d="M 277.6934 97.8213 C 277.6934 96.5127 277.9141 95.3271 278.3516 94.2646 C 278.791 93.2031 279.4023 92.2988 280.1875 91.5518 C 280.9727 90.8047 281.9033 90.2314 282.9814 89.8311 C 284.0586 89.4307 285.2363 89.2305 286.5146 89.2305 C 287.793 89.2305 288.9697 89.4307 290.0479 89.8311 C 291.125 90.2314 292.0566 90.8047 292.8418 91.5518 C 293.627 92.2988 294.2383 93.2031 294.6768 94.2646 C 295.1152 95.3271 295.3359 96.5127 295.3359 97.8213 C 295.3359 99.1289 295.1152 100.3135 294.6768 101.377 C 294.2383 102.4385 293.627 103.3428 292.8418 104.0898 C 292.0566 104.8369 291.125 105.4102 290.0479 105.8096 C 288.9697 106.21 287.793 106.4102 286.5146 106.4102 C 285.2363 106.4102 284.0586 106.21 282.9814 105.8096 C 281.9033 105.4102 280.9727 104.8369 280.1875 104.0898 C 279.4023 103.3428 278.791 102.4385 278.3516 101.377 C 277.9141 100.3135 277.6934 99.1289 277.6934 97.8213 L 277.6934 97.8213 ZM 281.4346 97.8213 C 281.4346 98.5908 281.5537 99.2949 281.793 99.9326 C 282.0303 100.5723 282.374 101.127 282.8193 101.5957 C 283.2666 102.0654 283.8018 102.4316 284.4248 102.6924 C 285.0479 102.9551 285.7451 103.085 286.5146 103.085 C 287.2832 103.085 287.9805 102.9551 288.6045 102.6924 C 289.2275 102.4316 289.7627 102.0654 290.209 101.5957 C 290.6553 101.127 290.998 100.5723 291.2363 99.9326 C 291.4746 99.2949 291.5947 98.5908 291.5947 97.8213 C 291.5947 97.0664 291.4746 96.3662 291.2363 95.7188 C 290.998 95.0732 290.6553 94.5146 290.209 94.0449 C 289.7627 93.5762 289.2275 93.21 288.6045 92.9482 C 287.9805 92.6865 287.2832 92.5557 286.5146 92.5557 C 285.7451 92.5557 285.0479 92.6865 284.4248 92.9482 C 283.8018 93.21 283.2666 93.5762 282.8193 94.0449 C 282.374 94.5146 282.0303 95.0732 281.793 95.7188 C 281.5537 96.3662 281.4346 97.0664 281.4346 97.8213 L 281.4346 97.8213 Z" fill="#5e5452"/>
	</g>
</svg>