<?xml version="1.0" standalone="no"?>
<!-- Generator: Adobe Fireworks 10, Export SVG Extension by Aaron Beall (http://fireworks.abeall.com) . Version: 0.6.1  -->
<!DOCTYPE svg PUBLIC "-//W3C//DTD SVG 1.1//EN" "http://www.w3.org/Graphics/SVG/1.1/DTD/svg11.dtd">
<svg id="Untitled-P%E1gina%201" viewBox="0 0 827 828" style="background-color:#ffffff00" version="1.1"
	xmlns="http://www.w3.org/2000/svg" xmlns:xlink="http://www.w3.org/1999/xlink" xml:space="preserve"
	x="0px" y="0px" width="827px" height="828px"
>
	<g>
		<path d="M 74.8575 0.0034 L 0 0.0034 L 0 74.8667 L 0 376.1162 L 74.8575 376.1162 L 74.8575 74.8667 L 301.2207 74.8667 L 301.2207 376.1162 L 376.0782 376.1162 L 376.0782 74.8667 L 376.0782 0.0034 L 301.2207 0.0034 L 74.8575 0.0034 Z" fill="#d2d9ce"/>
		<path d="M 225.4662 150.6299 L 150.6085 150.6299 L 150.6085 225.4932 L 225.4662 225.4932 L 225.4662 150.6299 Z" fill="#d2d9ce"/>
		<path d="M 150.6155 376.1162 L 225.4731 376.1162 L 225.4731 301.25 L 150.6155 301.25 L 150.6155 376.1162 Z" fill="#d2d9ce"/>
		<path d="M 601.5338 526.7397 L 676.3879 526.7397 L 676.3879 451.8765 L 601.5338 451.8765 L 601.5338 526.7397 Z" fill="#d2d9ce"/>
		<path d="M 525.7793 0.0034 L 450.9253 0.0034 L 450.9253 301.2568 L 450.9253 376.1162 L 525.7793 376.1162 L 827 376.1162 L 827 301.2568 L 525.7793 301.2568 L 525.7793 0.0034 Z" fill="#d2d9ce"/>
		<path d="M 676.3879 0.0034 L 601.5338 0.0034 L 601.5338 150.6299 L 601.5338 225.4897 L 676.3879 225.4897 L 827 225.4897 L 827 150.6299 L 676.3879 150.6299 L 676.3879 0.0034 Z" fill="#d2d9ce"/>
		<path d="M 752.1425 74.8667 L 827 74.8667 L 827 0 L 752.1425 0 L 752.1425 74.8667 Z" fill="#d2d9ce"/>
		<path d="M 601.5338 828 L 676.3879 828 L 676.3879 753.1299 L 601.5338 753.1299 L 601.5338 828 Z" fill="#d2d9ce"/>
		<path d="M 752.1425 602.5068 L 525.7793 602.5068 L 525.7793 451.8838 L 450.9253 451.8838 L 450.9253 602.5068 L 450.9253 677.377 L 450.9253 827.9932 L 525.7793 827.9932 L 525.7793 677.377 L 752.1425 677.377 L 752.1425 827.9932 L 827 827.9932 L 827 677.377 L 827 602.5068 L 827 451.8838 L 752.1425 451.8838 L 752.1425 602.5068 Z" fill="#d2d9ce"/>
		<path d="M 74.8575 451.8838 L 0 451.8838 L 0 526.7466 L 0 827.9932 L 74.8575 827.9932 L 74.8575 526.7466 L 301.2207 526.7466 L 301.2207 827.9932 L 376.0782 827.9932 L 376.0782 526.7466 L 376.0782 451.8838 L 301.2207 451.8838 L 74.8575 451.8838 Z" fill="#d2d9ce"/>
		<path d="M 150.6155 677.3701 L 225.4731 677.3701 L 225.4731 602.5068 L 150.6155 602.5068 L 150.6155 677.3701 Z" fill="#d2d9ce"/>
		<path d="M 150.6155 828 L 225.4731 828 L 225.4731 753.1299 L 150.6155 753.1299 L 150.6155 828 Z" fill="#d2d9ce"/>
	</g>
</svg>