<?xml version="1.0" standalone="no"?>
<!-- Generator: Adobe Fireworks 10, Export SVG Extension by Aaron Beall (http://fireworks.abeall.com) . Version: 0.6.1  -->
<!DOCTYPE svg PUBLIC "-//W3C//DTD SVG 1.1//EN" "http://www.w3.org/Graphics/SVG/1.1/DTD/svg11.dtd">
<svg id="Untitled-P%E1gina%201" viewBox="0 0 21 21" style="background-color:#ffffff00" version="1.1"
	xmlns="http://www.w3.org/2000/svg" xmlns:xlink="http://www.w3.org/1999/xlink" xml:space="preserve"
	x="0px" y="0px" width="21px" height="21px"
>
	<g id="Capa%201">
		<g id="4430">
			<path d="M 19.6875 19.25 C 19.6875 19.4912 19.4912 19.6875 19.2505 19.6875 L 1.75 19.6875 C 1.5088 19.6875 1.3125 19.4912 1.3125 19.25 L 1.3125 3.7183 C 1.3125 3.4775 1.5088 3.2813 1.75 3.2813 L 4.5938 3.2813 L 4.5938 4.5938 C 4.5938 4.9565 4.8877 5.25 5.25 5.25 C 5.6123 5.25 5.9063 4.9565 5.9063 4.5938 L 5.9063 3.2813 L 9.8438 3.2813 L 9.8438 4.5938 C 9.8438 4.9565 10.1377 5.25 10.5 5.25 C 10.8623 5.25 11.1563 4.9565 11.1563 4.5938 L 11.1563 3.2813 L 15.0938 3.2813 L 15.0938 4.5938 C 15.0938 4.9565 15.3872 5.25 15.75 5.25 C 16.1128 5.25 16.4063 4.9565 16.4063 4.5938 L 16.4063 3.2813 L 19.2505 3.2813 C 19.4912 3.2813 19.6875 3.4775 19.6875 3.7183 L 19.6875 19.25 L 19.6875 19.25 ZM 19.2505 1.9688 L 16.4063 1.9688 L 16.4063 0.6563 C 16.4063 0.2935 16.1128 0 15.75 0 C 15.3872 0 15.0938 0.2935 15.0938 0.6563 L 15.0938 1.9688 L 11.1563 1.9688 L 11.1563 0.6563 C 11.1563 0.2935 10.8623 0 10.5 0 C 10.1377 0 9.8438 0.2935 9.8438 0.6563 L 9.8438 1.9688 L 5.9063 1.9688 L 5.9063 0.6563 C 5.9063 0.2935 5.6123 0 5.25 0 C 4.8877 0 4.5938 0.2935 4.5938 0.6563 L 4.5938 1.9688 L 1.75 1.9688 C 0.7834 1.9688 0 2.752 0 3.7183 L 0 19.25 C 0 20.2163 0.7834 21 1.75 21 L 19.2505 21 C 20.217 21 21 20.2163 21 19.25 L 21 3.7183 C 21 2.752 20.217 1.9688 19.2505 1.9688 L 19.2505 1.9688 Z" fill="#333333"/>
			<rect x="5.0938" y="7.875" width="2.625" height="1.9688" fill="#333333"/>
			<rect x="5.0938" y="11.1563" width="2.625" height="1.9688" fill="#333333"/>
			<rect x="5.0938" y="14.4375" width="2.625" height="1.9688" fill="#333333"/>
			<rect x="9.6875" y="14.4375" width="2.625" height="1.9688" fill="#333333"/>
			<rect x="9.6875" y="11.1563" width="2.625" height="1.9688" fill="#333333"/>
			<rect x="9.6875" y="7.875" width="2.625" height="1.9688" fill="#333333"/>
			<rect x="14.2813" y="14.4375" width="2.625" height="1.9688" fill="#333333"/>
			<rect x="14.2813" y="11.1563" width="2.625" height="1.9688" fill="#333333"/>
			<rect x="14.2813" y="7.875" width="2.625" height="1.9688" fill="#333333"/>
		</g>
	</g>
</svg>