<?xml version="1.0" standalone="no"?>
<!-- Generator: Adobe Fireworks 10, Export SVG Extension by Aaron Beall (http://fireworks.abeall.com) . Version: 0.6.1  -->
<!DOCTYPE svg PUBLIC "-//W3C//DTD SVG 1.1//EN" "http://www.w3.org/Graphics/SVG/1.1/DTD/svg11.dtd">
<svg id="Untitled-P%E1gina%201" viewBox="0 0 16 23" style="background-color:#ffffff00" version="1.1"
	xmlns="http://www.w3.org/2000/svg" xmlns:xlink="http://www.w3.org/1999/xlink" xml:space="preserve"
	x="0px" y="0px" width="16px" height="23px"
>
	<g>
		<path d="M 15.7998 19.9004 L 13.6797 16.2432 C 13.257 15.5166 12.3052 15.2852 11.5587 15.7275 L 9.7344 16.8086 C 9.6563 16.7344 9.5754 16.6563 9.4905 16.5732 C 8.7095 15.8213 7.6407 14.792 6.6693 13.1143 C 5.6949 11.4336 5.3278 9.9844 5.0593 8.9277 C 5.0308 8.8154 5.0039 8.707 4.9766 8.6055 L 6.2007 7.8789 L 6.803 7.5234 C 7.5508 7.0791 7.8147 6.127 7.3932 5.3984 L 5.2729 1.7402 C 4.8517 1.0137 3.8998 0.7813 3.152 1.2246 L 2.1301 1.835 L 2.1466 1.8633 C 1.7849 2.1416 1.4535 2.4863 1.1726 2.877 C 0.9098 3.25 0.7106 3.6201 0.5638 4.0039 C -0.6368 7.082 0.0482 10.3633 2.9265 15.3301 C 6.9055 22.1934 11.3538 22.9238 11.5461 22.9531 C 11.9672 23.0117 12.3833 23.0156 12.8212 22.9648 C 13.2916 22.9082 13.7499 22.7842 14.1664 22.6016 L 14.1801 22.6211 L 15.2097 22.0254 C 15.9561 21.582 16.2207 20.6299 15.7998 19.9004 ZM 14.7388 21.2129 L 14.2832 21.4824 L 14.103 21.584 C 13.8193 21.7461 13.3468 21.9541 12.7156 22.0293 C 12.3577 22.0703 12.0161 22.0684 11.6798 22.0215 C 11.6377 22.0146 7.4629 21.292 3.7301 14.8535 C 0.5564 9.3779 0.515 6.6934 1.4308 4.3447 C 1.55 4.0332 1.7135 3.7305 1.9283 3.4258 C 2.3047 2.9043 2.7147 2.5879 2.9913 2.416 L 3.6227 2.0371 C 3.9265 1.8564 4.3066 1.9375 4.4692 2.2168 L 6.5895 5.875 C 6.7517 6.1563 6.636 6.5293 6.3318 6.7109 L 3.8865 8.1602 L 3.9866 8.5117 C 4.0422 8.707 4.0981 8.9248 4.1571 9.1602 C 4.439 10.2734 4.8243 11.7969 5.8655 13.5908 C 6.9033 15.3828 8.0273 16.4648 8.8472 17.2559 C 9.0244 17.4258 9.1862 17.582 9.3295 17.7285 L 9.5845 17.9902 L 12.0288 16.54 C 12.3334 16.3604 12.7148 16.4414 12.8774 16.7207 L 14.9966 20.3779 C 15.1584 20.6582 15.043 21.0332 14.7388 21.2129 Z" fill="#597449"/>
	</g>
</svg>