<?xml version="1.0" standalone="no"?>
<!-- Generator: Adobe Fireworks 10, Export SVG Extension by Aaron Beall (http://fireworks.abeall.com) . Version: 0.6.1  -->
<!DOCTYPE svg PUBLIC "-//W3C//DTD SVG 1.1//EN" "http://www.w3.org/Graphics/SVG/1.1/DTD/svg11.dtd">
<svg id="Untitled-P%E1gina%201" viewBox="0 0 26 26" style="background-color:#ffffff00" version="1.1"
	xmlns="http://www.w3.org/2000/svg" xmlns:xlink="http://www.w3.org/1999/xlink" xml:space="preserve"
	x="0px" y="0px" width="26px" height="26px"
>
	<g id="Capa%201">
		<g id="bill">
			<path d="M 24.8182 9.4546 L 21.2727 9.4546 L 21.2727 1.1819 C 21.2727 0.5293 20.7437 0 20.0909 0 C 19.8352 0 19.5864 0.083 19.3818 0.2363 L 16.9354 2.0684 C 13.2482 -0.6855 14.2999 -0.6855 10.6364 2.0684 C 6.9609 -0.6855 8.0009 -0.6855 4.3254 2.0684 L 1.8909 0.2363 C 1.3687 -0.1553 0.6279 -0.0493 0.2363 0.4727 C 0.083 0.6772 0 0.9263 0 1.1819 L 0 22.4546 C 0 24.4126 1.5874 26 3.5454 26 L 22.4546 26 C 24.4126 26 26 24.4126 26 22.4546 L 26 10.6362 C 26 9.9839 25.4708 9.4546 24.8182 9.4546 ZM 3.5454 23.6362 C 2.8928 23.6362 2.3636 23.1072 2.3636 22.4546 L 2.3636 3.5454 C 4.7273 5.2827 4.03 5.2473 7.4808 2.6592 C 11.1445 5.4128 10.1045 5.4128 13.78 2.6592 C 17.3254 5.3066 16.64 5.2473 18.9091 3.5454 C 18.9091 23.3408 18.8146 22.8091 19.11 23.6362 L 3.5454 23.6362 ZM 23.6364 22.4546 C 23.6364 23.1072 23.1072 23.6362 22.4546 23.6362 C 21.8018 23.6362 21.2727 23.1072 21.2727 22.4546 L 21.2727 11.8184 L 23.6364 11.8184 L 23.6364 22.4546 Z" fill="#ffffff"/>
			<path d="M 10.0454 11.8184 L 13 11.8184 C 13.6527 11.8184 14.1818 11.2891 14.1818 10.6362 C 14.1818 9.9839 13.6527 9.4546 13 9.4546 L 11.8182 9.4546 C 11.8019 8.8018 11.2595 8.2861 10.6068 8.3022 C 9.9541 8.3186 9.4382 8.8608 9.4546 9.5137 C 7.8553 9.8384 6.8223 11.3979 7.147 12.9971 C 7.4269 14.375 8.6393 15.365 10.0454 15.3638 L 11.2273 15.3638 C 11.5536 15.3638 11.8182 15.6282 11.8182 15.9546 C 11.8182 16.281 11.5536 16.5454 11.2273 16.5454 L 8.2727 16.5454 C 7.62 16.5454 7.0909 17.0747 7.0909 17.7273 C 7.0909 18.3799 7.62 18.9092 8.2727 18.9092 L 9.4546 18.9092 C 9.4546 19.5618 9.9838 20.0908 10.6364 20.0908 C 11.2891 20.0908 11.8182 19.5618 11.8182 18.9092 C 13.45 18.7461 14.6404 17.291 14.4773 15.6592 C 14.3141 14.0273 12.859 12.8369 11.2273 13 L 10.0454 13 C 9.7191 13 9.4546 12.7354 9.4546 12.4092 C 9.4546 12.0828 9.7191 11.8184 10.0454 11.8184 Z" fill="#ffffff"/>
		</g>
	</g>
</svg>