<?xml version="1.0" standalone="no"?>
<!-- Generator: Adobe Fireworks 10, Export SVG Extension by Aaron Beall (http://fireworks.abeall.com) . Version: 0.6.1  -->
<!DOCTYPE svg PUBLIC "-//W3C//DTD SVG 1.1//EN" "http://www.w3.org/Graphics/SVG/1.1/DTD/svg11.dtd">
<svg id="Untitled-P%E1gina%201" viewBox="0 0 23 35" style="background-color:#ffffff00" version="1.1"
	xmlns="http://www.w3.org/2000/svg" xmlns:xlink="http://www.w3.org/1999/xlink" xml:space="preserve"
	x="0px" y="0px" width="23px" height="35px"
>
	<g>
		<path d="M 11.5 0 C 5.1589 0 0 5.3286 0 11.8779 C 0 14.5103 1.5002 18.5127 4.7213 24.4751 C 6.9193 28.5435 9.1072 31.9795 9.1995 32.124 L 10.7808 34.6001 C 10.9402 34.8496 11.2103 35 11.5 35 C 11.7897 35 12.0598 34.8496 12.2192 34.6001 L 13.8005 32.124 C 13.892 31.9814 16.0638 28.5752 18.2787 24.4751 C 21.4999 18.5137 23 14.5107 23 11.8779 C 23 5.3286 17.8411 0 11.5 0 ZM 16.7739 23.6074 C 14.5898 27.6504 12.4523 31.0029 12.3622 31.144 L 11.5 32.4941 L 10.6381 31.1445 C 10.5476 31.002 8.3934 27.6191 6.226 23.6074 C 3.2383 18.0771 1.7233 14.1309 1.7233 11.8779 C 1.7233 6.3101 6.109 1.7803 11.5 1.7803 C 16.891 1.7803 21.2767 6.3101 21.2767 11.8779 C 21.2767 14.1313 19.7617 18.0776 16.7739 23.6074 Z" fill="#ffffff"/>
		<path d="M 11.5 5.2183 C 7.9843 5.2183 5.1239 8.1729 5.1239 11.8037 C 5.1239 15.4355 7.9843 18.3896 11.5 18.3896 C 15.0157 18.3896 17.8761 15.4355 17.8761 11.8037 C 17.8761 8.1729 15.0157 5.2183 11.5 5.2183 ZM 11.5 16.6104 C 8.9343 16.6104 6.8472 14.4541 6.8472 11.8037 C 6.8472 9.1543 8.9343 6.998 11.5 6.998 C 14.0657 6.998 16.1528 9.1543 16.1528 11.8037 C 16.1528 14.4541 14.0657 16.6104 11.5 16.6104 Z" fill="#ffffff"/>
	</g>
</svg>