<?xml version="1.0" standalone="no"?>
<!-- Generator: Adobe Fireworks 10, Export SVG Extension by Aaron Beall (http://fireworks.abeall.com) . Version: 0.6.1  -->
<!DOCTYPE svg PUBLIC "-//W3C//DTD SVG 1.1//EN" "http://www.w3.org/Graphics/SVG/1.1/DTD/svg11.dtd">
<svg id="Untitled-P%E1gina%201" viewBox="0 0 21 18" style="background-color:#ffffff00" version="1.1"
	xmlns="http://www.w3.org/2000/svg" xmlns:xlink="http://www.w3.org/1999/xlink" xml:space="preserve"
	x="0px" y="0px" width="21px" height="18px"
>
	<path id="159773" d="M 18.5098 1.8843 L 8.7826 11.2485 L 1.0984 8.9385 L 18.5098 1.8843 L 18.5098 1.8843 ZM 16.7665 16.6062 L 9.7505 11.7729 L 19.5891 2.3022 L 16.7665 16.6062 L 16.7665 16.6062 ZM 9.682 16.2012 L 9.5065 12.8726 L 11.4767 14.228 L 9.682 16.2012 L 9.682 16.2012 ZM 0.0018 9.0024 C 0.0276 9.4329 0.3145 9.7952 0.73 9.9189 L 8.4227 12.2332 L 8.7054 17.5098 C 8.7183 17.7188 8.8596 17.9019 9.0609 17.9702 C 9.1167 17.9915 9.1766 18 9.2322 18 C 9.3822 18 9.5234 17.9404 9.6263 17.8252 L 12.3462 14.8289 L 16.201 17.4844 C 16.3724 17.6035 16.5737 17.6675 16.7837 17.6675 C 17.2677 17.6675 17.6874 17.3267 17.7902 16.8491 L 20.9899 0.6228 C 21.0283 0.4353 20.9554 0.2393 20.8098 0.1199 C 20.66 -0.0039 20.4586 -0.0337 20.2787 0.0391 L 0.6187 8.0007 C 0.2203 8.1797 -0.0239 8.5718 0.0018 9.0024 L 0.0018 9.0024 Z" fill="#ffffff"/>
</svg>