<?xml version="1.0" standalone="no"?>
<!-- Generator: Adobe Fireworks 10, Export SVG Extension by Aaron Beall (http://fireworks.abeall.com) . Version: 0.6.1  -->
<!DOCTYPE svg PUBLIC "-//W3C//DTD SVG 1.1//EN" "http://www.w3.org/Graphics/SVG/1.1/DTD/svg11.dtd">
<svg id="Untitled-P%E1gina%201" viewBox="0 0 23 33" style="background-color:#ffffff00" version="1.1"
	xmlns="http://www.w3.org/2000/svg" xmlns:xlink="http://www.w3.org/1999/xlink" xml:space="preserve"
	x="0px" y="0px" width="23px" height="33px"
>
	<g>
		<path d="M 22.7123 28.4922 L 19.6646 23.1719 C 19.0569 22.1152 17.6887 21.7783 16.6157 22.4219 L 13.993 23.9951 C 13.8809 23.8857 13.7646 23.7725 13.6426 23.6523 C 12.5199 22.5586 10.9836 21.0605 9.5872 18.6211 C 8.1865 16.1758 7.6587 14.0688 7.2728 12.5308 C 7.2317 12.3677 7.1931 12.2109 7.1539 12.0615 L 8.9136 11.0068 L 9.7793 10.4873 C 10.8541 9.8423 11.2336 8.4565 10.6277 7.3984 L 7.58 2.0771 C 6.9744 1.0195 5.606 0.6826 4.531 1.3271 L 3.062 2.2144 L 3.0858 2.2554 C 2.5658 2.6602 2.0894 3.1611 1.6855 3.7295 C 1.3079 4.2725 1.0215 4.8105 0.8105 5.3696 C -0.9155 9.8462 0.0693 14.6191 4.2069 21.8428 C 9.9268 31.8262 16.321 32.8896 16.5975 32.9316 C 17.2028 33.0166 17.801 33.0225 18.4304 32.9482 C 19.1067 32.8662 19.7654 32.6855 20.3641 32.4204 L 20.3838 32.4497 L 21.8639 31.583 C 22.9368 30.938 23.3174 29.5527 22.7123 28.4922 ZM 21.187 30.4004 L 20.5321 30.7925 L 20.2732 30.9409 C 19.8652 31.1763 19.186 31.4785 18.2786 31.5889 C 17.7642 31.6484 17.2732 31.6436 16.7898 31.5762 C 16.7292 31.5664 10.728 30.5156 5.3621 21.1494 C 0.7998 13.186 0.7404 9.2813 2.0568 5.8652 C 2.2283 5.4116 2.4631 4.9717 2.772 4.5288 C 3.3131 3.7686 3.9023 3.3096 4.3 3.0596 L 5.2076 2.5088 C 5.6444 2.2461 6.1909 2.3623 6.4246 2.7705 L 9.4724 8.0908 C 9.7056 8.499 9.5393 9.0439 9.1019 9.3076 L 5.5868 11.4141 L 5.7307 11.9258 C 5.8108 12.21 5.8911 12.5273 5.9758 12.8701 C 6.3811 14.4893 6.9351 16.7046 8.4316 19.314 C 9.9236 21.9199 11.5393 23.4951 12.7179 24.6445 C 12.9727 24.8921 13.2051 25.1196 13.4111 25.333 L 13.7777 25.7119 L 17.2914 23.6035 C 17.7292 23.3418 18.2775 23.46 18.5112 23.8667 L 21.5575 29.1855 C 21.7903 29.5928 21.6243 30.1387 21.187 30.4004 Z" fill="#ffffff"/>
	</g>
</svg>