<?xml version="1.0" standalone="no"?>
<!-- Generator: Adobe Fireworks 10, Export SVG Extension by Aaron Beall (http://fireworks.abeall.com) . Version: 0.6.1  -->
<!DOCTYPE svg PUBLIC "-//W3C//DTD SVG 1.1//EN" "http://www.w3.org/Graphics/SVG/1.1/DTD/svg11.dtd">
<svg id="Untitled-P%E1gina%201" viewBox="0 0 37 37" style="background-color:#ffffff00" version="1.1"
	xmlns="http://www.w3.org/2000/svg" xmlns:xlink="http://www.w3.org/1999/xlink" xml:space="preserve"
	x="0px" y="0px" width="37px" height="37px"
>
	<g id="66163">
		<path d="M 22.2374 33.8115 C 21.9324 33.888 21.6212 33.9561 21.3125 34.0133 C 20.5054 34.1646 19.9718 34.9465 20.1212 35.7602 C 20.1948 36.1606 20.4205 36.494 20.7269 36.7117 C 21.0428 36.9356 21.4448 37.0367 21.8544 36.96 C 22.222 36.8912 22.5927 36.8104 22.9563 36.719 C 23.7533 36.5192 24.2389 35.7058 24.04 34.9034 C 23.8417 34.1002 23.0349 33.6115 22.2374 33.8115 L 22.2374 33.8115 Z" fill="#ffffff"/>
		<path d="M 33.2369 13.7288 C 33.3412 14.0451 33.54 14.3033 33.7913 14.4818 C 34.1638 14.746 34.6514 14.835 35.1165 14.68 C 35.8965 14.4192 36.3191 13.572 36.0609 12.7868 C 35.9435 12.4288 35.813 12.0697 35.6741 11.7201 C 35.369 10.9518 34.5038 10.5777 33.7406 10.885 C 32.9783 11.1922 32.6068 12.064 32.9122 12.8326 C 33.0288 13.1264 33.1382 13.428 33.2369 13.7288 L 33.2369 13.7288 Z" fill="#ffffff"/>
		<path d="M 27.0707 31.6722 C 26.8083 31.8467 26.5376 32.0157 26.2648 32.1739 C 25.553 32.5875 25.3092 33.5039 25.7195 34.2206 C 25.8311 34.4155 25.9795 34.5748 26.1503 34.6966 C 26.6093 35.0218 27.2324 35.0705 27.7512 34.7694 C 28.0756 34.581 28.3981 34.3806 28.7106 34.1724 C 29.3956 33.7165 29.5842 32.7868 29.1313 32.0964 C 28.6786 31.4057 27.7561 31.216 27.0707 31.6722 L 27.0707 31.6722 Z" fill="#ffffff"/>
		<path d="M 36.9858 17.9135 C 36.9534 17.0865 36.262 16.4429 35.4409 16.4751 C 34.6206 16.5078 33.9811 17.2045 34.0134 18.0312 C 34.0256 18.3472 34.0289 18.668 34.0216 18.9838 C 34.0101 19.5023 34.262 19.9646 34.6532 20.2425 C 34.8864 20.4078 35.1693 20.5079 35.476 20.5149 C 36.297 20.5333 36.9773 19.8774 36.9956 19.05 C 37.0038 18.6727 37.0006 18.2905 36.9858 17.9135 L 36.9858 17.9135 Z" fill="#ffffff"/>
		<path d="M 32.9941 27.7307 C 32.3358 27.2332 31.4045 27.3683 30.9114 28.0302 C 30.7228 28.2837 30.5238 28.5341 30.3202 28.7751 C 29.7881 29.4048 29.8633 30.3507 30.4885 30.8871 C 30.524 30.9176 30.5602 30.9455 30.5974 30.9718 C 31.219 31.4131 32.0828 31.3117 32.5852 30.7177 C 32.8284 30.4301 33.0653 30.1311 33.291 29.8283 C 33.7842 29.1664 33.6506 28.2276 32.9941 27.7307 L 32.9941 27.7307 Z" fill="#ffffff"/>
		<path d="M 35.1807 22.3146 C 34.3969 22.067 33.562 22.5066 33.3164 23.2961 C 33.2225 23.5977 33.1183 23.9008 33.0059 24.1977 C 32.7588 24.8511 32.9955 25.5701 33.5378 25.9554 C 33.6375 26.0258 33.7471 26.0854 33.8661 26.1308 C 34.6335 26.4258 35.4929 26.0379 35.7854 25.2646 C 35.9191 24.9117 36.0428 24.5511 36.1549 24.1924 C 36.4003 23.4027 35.9642 22.5622 35.1807 22.3146 L 35.1807 22.3146 Z" fill="#ffffff"/>
		<path d="M 15.7479 34.0268 C 14.4182 33.7863 13.1425 33.3768 11.9329 32.8055 C 11.9185 32.798 11.9056 32.7894 11.8907 32.7825 C 11.6057 32.6474 11.321 32.5026 11.0452 32.3513 C 11.0442 32.3502 11.0425 32.3495 11.041 32.3488 C 10.5349 32.0681 10.0409 31.7575 9.5612 31.4173 C 2.5642 26.4524 0.8818 16.6791 5.8109 9.6311 C 6.8829 8.0992 8.1798 6.821 9.626 5.808 C 9.6438 5.7955 9.6615 5.7831 9.6792 5.7705 C 14.7749 2.2339 21.694 1.9955 27.1046 5.6298 L 25.9425 7.3211 C 25.6195 7.7919 25.8184 8.135 26.3838 8.0837 L 31.4318 7.6285 C 31.998 7.5772 32.3367 7.0838 32.1843 6.5328 L 30.8289 1.6132 C 30.677 1.0617 30.2886 0.9957 29.9651 1.4664 L 28.8004 3.1617 C 24.8297 0.4767 20.067 -0.5471 15.34 0.2786 C 14.8639 0.3616 14.3945 0.4632 13.9316 0.5815 C 13.928 0.5821 13.925 0.5825 13.9221 0.5831 C 13.9043 0.5875 13.8862 0.5934 13.8688 0.5983 C 9.7926 1.6527 6.2361 4.0475 3.6984 7.4643 C 3.677 7.4899 3.6549 7.5149 3.6348 7.5427 C 3.5503 7.6571 3.4666 7.7743 3.3846 7.8914 C 3.2505 8.0834 3.1183 8.2801 2.9918 8.4769 C 2.9761 8.5006 2.9639 8.5247 2.9501 8.5487 C 0.856 11.8175 -0.1542 15.5966 0.019 19.444 C 0.0195 19.4567 0.0187 19.4695 0.019 19.4824 C 0.0359 19.8582 0.0654 20.2393 0.1056 20.6143 C 0.1078 20.6386 0.113 20.6615 0.1172 20.6857 C 0.1586 21.0628 0.2108 21.4409 0.276 21.8189 C 0.9397 25.6756 2.7458 29.146 5.4521 31.8463 C 5.4585 31.8527 5.4648 31.8596 5.4713 31.8661 C 5.4735 31.8686 5.4761 31.8699 5.4781 31.8722 C 6.2052 32.5946 6.9961 33.2628 7.8478 33.867 C 10.0763 35.4488 12.558 36.4944 15.223 36.9761 C 16.0317 37.1225 16.8042 36.5803 16.9492 35.7661 C 17.0942 34.9514 16.5564 34.1727 15.7479 34.0268 L 15.7479 34.0268 Z" fill="#ffffff"/>
		<path d="M 17.5873 6.5304 C 16.9221 6.5304 16.3833 7.0736 16.3833 7.7426 L 16.3833 19.82 L 27.3489 25.53 C 27.5254 25.622 27.7144 25.6654 27.9004 25.6654 C 28.3358 25.6654 28.7565 25.4265 28.9703 25.0096 C 29.2754 24.4147 29.0446 23.6838 28.454 23.3766 L 18.7899 18.3438 L 18.7899 7.7426 C 18.7897 7.0736 18.2516 6.5304 17.5873 6.5304 L 17.5873 6.5304 Z" fill="#ffffff"/>
	</g>
</svg>