<?xml version="1.0" standalone="no"?>
<!-- Generator: Adobe Fireworks 10, Export SVG Extension by Aaron Beall (http://fireworks.abeall.com) . Version: 0.6.1  -->
<!DOCTYPE svg PUBLIC "-//W3C//DTD SVG 1.1//EN" "http://www.w3.org/Graphics/SVG/1.1/DTD/svg11.dtd">
<svg id="Untitled-P%E1gina%201" viewBox="0 0 21 15" style="background-color:#ffffff00" version="1.1"
	xmlns="http://www.w3.org/2000/svg" xmlns:xlink="http://www.w3.org/1999/xlink" xml:space="preserve"
	x="0px" y="0px" width="21px" height="15px"
>
	<g>
		<path d="M 21 1.4297 L 21 1.3477 C 21 1.0391 20.8622 0.6748 20.6147 0.4238 L 20.5867 0.3945 C 20.5867 0.3945 20.5586 0.3945 20.5586 0.3662 C 20.5026 0.3086 20.449 0.2832 20.3928 0.2256 C 20.3647 0.2256 20.3647 0.1973 20.3367 0.1973 C 20.2805 0.1689 20.1989 0.1406 20.1427 0.1143 C 20.1147 0.1143 20.1147 0.0859 20.0865 0.0859 C 20.005 0.0566 19.9209 0.0293 19.8391 0.0293 C 19.811 0.0293 19.811 0.0293 19.783 0.0293 C 19.7014 0.0293 19.5891 0 19.4795 0 L 1.49 0 C 1.3802 0 1.2705 0 1.1583 0.0293 C 1.1302 0.0293 1.1022 0.0293 1.0767 0.0566 C 0.995 0.0859 0.9108 0.0859 0.8572 0.1143 C 0.8292 0.1143 0.8292 0.1426 0.8011 0.1426 C 0.745 0.1709 0.6633 0.1992 0.6072 0.2256 L 0.5791 0.2539 C 0.5229 0.2832 0.4694 0.3379 0.4133 0.3662 C 0.3851 0.3945 0.3572 0.4238 0.3315 0.4492 C 0.1378 0.6719 0.0281 0.9268 0 1.207 C 0 1.2363 0 1.2363 0 1.2637 L 0 13.7383 C 0 13.7676 0 13.7676 0 13.7949 C 0.0562 14.1875 0.2474 14.5254 0.5229 14.7197 C 0.7705 14.8887 1.0741 15 1.4313 15 L 19.5355 15 C 19.5355 15 19.5355 15 19.5636 15 L 19.5636 15 C 19.6453 15 19.7574 15 19.8391 14.9707 C 19.8672 14.9707 19.8672 14.9707 19.8953 14.9707 C 19.9769 14.9434 20.0612 14.9434 20.1147 14.9141 L 20.1427 14.9141 C 20.7499 14.6914 20.9973 14.1563 20.9973 13.6523 L 20.9973 13.5703 L 20.9973 13.541 L 20.9973 13.5127 L 20.9973 1.5137 C 20.9973 1.4844 20.9973 1.4844 20.9973 1.4561 C 21 1.459 21 1.459 21 1.4297 ZM 19.2369 1.0391 L 10.5574 9.6426 L 8.5724 7.6807 L 8.5724 7.6807 L 1.7655 1.0352 L 19.2369 1.0352 L 19.2369 1.0391 ZM 1.0231 13.4014 L 1.0231 1.7393 L 7.4421 8.0176 L 1.0231 13.4014 ZM 10.2819 13.9883 L 1.9314 13.9883 L 8.1873 8.7734 L 10.1976 10.7637 C 10.2793 10.8477 10.3635 10.876 10.4451 10.9043 L 10.4733 10.9043 C 10.5013 10.9043 10.5013 10.9043 10.5293 10.9043 L 10.5293 10.9043 C 10.5574 10.9043 10.5854 10.9043 10.5854 10.9043 L 10.6135 10.9043 C 10.6952 10.876 10.8075 10.8477 10.8611 10.7637 L 12.7617 8.8848 L 19.0432 13.9883 L 10.2819 13.9883 L 10.2819 13.9883 ZM 19.9795 13.4268 L 13.5322 8.1289 L 19.9795 1.7393 L 19.9795 13.4268 Z" fill="#597449"/>
	</g>
</svg>